<svg width="610" height="610" xmlns="http://www.w3.org/2000/svg">

 <g>
  <title>background</title>
  <rect fill="none" id="canvas_background" height="402" width="582" y="-1" x="-1"/>
 </g>
 <g>
  <title>Layer 1</title>
  <path id="svg_3" fill-rule="evenodd" fill="#4a0" d="m294.02,58.721c-16.15,0.62225 -37.95,9.6233 -55.045,46.54c-55.391,-49.262 -99.441,8.3157 -99.579,8.5858c-23.415,45.808 21.504,112.69 88.506,158.4c-81.065,-26.732 -153.93,-18.885 -174.52,29.689c-0.9553,2.2526 -20.74,48.691 46.62,75.025c-45.794,58.291 14.326,98.735 14.604,98.857c45.863,20.017 107.68,-25.733 149.25,-92.357c-27.674,79.247 -21.232,150.93 26.239,172.52c2.2273,1.0129 48.091,21.966 76.148,-44.694c57.094,47.278 99.049,-11.761 99.178,-12.036c21.878,-46.806 -25.873,-112.52 -94.925,-155.83c79.328,28.708 151.48,23.132 173.56,-24.313c1.0324,-2.2184 22.359,-47.908 -44.052,-76.55c47.777,-56.677 -10.88,-99.207 -11.153,-99.338c-43.307,-20.708 -103.4,18.537 -146.92,79.278c24.678,-72.619 18.581,-137.36 -25.276,-159.2c-0.95823,-0.47724 -10.067,-5.0577 -22.628,-4.5737l-0.007,-0.0031z"/>
 </g>
</svg>